<mxfile host="65bd71144e">
    <diagram id="s2xcxfEr0acGgYOsYXea" name="Страница 1">
        <mxGraphModel dx="1145" dy="790" grid="1" gridSize="10" guides="1" tooltips="1" connect="1" arrows="1" fold="1" page="1" pageScale="1" pageWidth="827" pageHeight="1169" math="0" shadow="0">
            <root>
                <mxCell id="0"/>
                <mxCell id="1" parent="0"/>
                <mxCell id="4" value="" style="edgeStyle=none;html=1;exitX=0.5;exitY=0.5;exitDx=0;exitDy=15;exitPerimeter=0;" parent="1" source="38" target="3" edge="1">
                    <mxGeometry relative="1" as="geometry">
                        <mxPoint x="414" y="70" as="sourcePoint"/>
                    </mxGeometry>
                </mxCell>
                <mxCell id="6" value="" style="edgeStyle=none;html=1;fontSize=14;" parent="1" source="3" target="5" edge="1">
                    <mxGeometry relative="1" as="geometry"/>
                </mxCell>
                <mxCell id="3" value="&lt;div style=&quot;font-size: 14px&quot;&gt;array = [&quot;hello&quot;, &quot;2&quot;, &quot;world&quot;, &quot;:-)&quot;, &quot;qw&quot;]&lt;/div&gt;&lt;div style=&quot;font-size: 14px&quot;&gt;k = 0, i = 0&lt;/div&gt;" style="shape=parallelogram;perimeter=parallelogramPerimeter;whiteSpace=wrap;html=1;fixedSize=1;fontSize=14;fontFamily=Lucida Console;fillColor=#60a917;fontColor=#ffffff;strokeColor=#2D7600;" parent="1" vertex="1">
                    <mxGeometry x="200" y="120" width="430" height="60" as="geometry"/>
                </mxCell>
                <mxCell id="8" value="Yes" style="edgeStyle=none;html=1;fontSize=14;fontFamily=Lucida Console;" parent="1" source="5" target="7" edge="1">
                    <mxGeometry relative="1" as="geometry"/>
                </mxCell>
                <mxCell id="17" value="No" style="edgeStyle=none;html=1;exitX=1;exitY=0.5;exitDx=0;exitDy=0;entryX=0.5;entryY=0;entryDx=0;entryDy=0;fontSize=14;fontFamily=Lucida Console;" parent="1" source="5" target="16" edge="1">
                    <mxGeometry x="-0.6466" relative="1" as="geometry">
                        <Array as="points">
                            <mxPoint x="600" y="270"/>
                            <mxPoint x="600" y="440"/>
                            <mxPoint x="600" y="570"/>
                            <mxPoint x="414" y="570"/>
                        </Array>
                        <mxPoint as="offset"/>
                    </mxGeometry>
                </mxCell>
                <mxCell id="5" value="i &amp;lt; len(array)" style="rhombus;whiteSpace=wrap;html=1;fontSize=14;fontFamily=Lucida Console;fillColor=#0050ef;fontColor=#ffffff;strokeColor=#001DBC;" parent="1" vertex="1">
                    <mxGeometry x="280" y="230" width="270" height="80" as="geometry"/>
                </mxCell>
                <mxCell id="10" value="Yes" style="edgeStyle=none;html=1;fontSize=14;fontFamily=Lucida Console;" parent="1" source="7" target="9" edge="1">
                    <mxGeometry relative="1" as="geometry"/>
                </mxCell>
                <mxCell id="13" value="No" style="edgeStyle=none;html=1;fontSize=14;fontFamily=Lucida Console;" parent="1" source="7" target="12" edge="1">
                    <mxGeometry relative="1" as="geometry"/>
                </mxCell>
                <mxCell id="7" value="len(array[i]) &amp;lt;= 3" style="rhombus;whiteSpace=wrap;html=1;fontSize=14;fontFamily=Lucida Console;fillColor=#0050ef;fontColor=#ffffff;strokeColor=#001DBC;" parent="1" vertex="1">
                    <mxGeometry x="280" y="360" width="270" height="80" as="geometry"/>
                </mxCell>
                <mxCell id="14" style="edgeStyle=none;html=1;exitX=0;exitY=0.5;exitDx=0;exitDy=0;entryX=0.5;entryY=1;entryDx=0;entryDy=0;fontSize=14;fontFamily=Lucida Console;" parent="1" source="9" target="12" edge="1">
                    <mxGeometry relative="1" as="geometry">
                        <Array as="points">
                            <mxPoint x="170" y="520"/>
                        </Array>
                    </mxGeometry>
                </mxCell>
                <mxCell id="9" value="k = k + 1" style="whiteSpace=wrap;html=1;fontSize=14;fontFamily=Lucida Console;fillColor=#f0a30a;fontColor=#000000;strokeColor=#BD7000;" parent="1" vertex="1">
                    <mxGeometry x="355" y="490" width="120" height="60" as="geometry"/>
                </mxCell>
                <mxCell id="15" style="edgeStyle=none;html=1;exitX=0.5;exitY=0;exitDx=0;exitDy=0;entryX=0;entryY=0.5;entryDx=0;entryDy=0;fontSize=14;fontFamily=Lucida Console;" parent="1" source="12" target="5" edge="1">
                    <mxGeometry relative="1" as="geometry">
                        <Array as="points">
                            <mxPoint x="170" y="270"/>
                        </Array>
                    </mxGeometry>
                </mxCell>
                <mxCell id="12" value="i = i + 1" style="whiteSpace=wrap;html=1;fontSize=14;fontFamily=Lucida Console;fillColor=#f0a30a;fontColor=#000000;strokeColor=#BD7000;" parent="1" vertex="1">
                    <mxGeometry x="110" y="370" width="120" height="60" as="geometry"/>
                </mxCell>
                <mxCell id="19" style="edgeStyle=none;html=1;exitX=0.5;exitY=1;exitDx=0;exitDy=0;entryX=0.5;entryY=0;entryDx=0;entryDy=0;fontFamily=Lucida Console;fontSize=14;" parent="1" source="16" target="18" edge="1">
                    <mxGeometry relative="1" as="geometry"/>
                </mxCell>
                <mxCell id="16" value="len(result) = k&lt;br&gt;k = 0, i = 0" style="shape=parallelogram;perimeter=parallelogramPerimeter;whiteSpace=wrap;html=1;fixedSize=1;fontSize=14;fontFamily=Lucida Console;fillColor=#60a917;fontColor=#ffffff;strokeColor=#2D7600;" parent="1" vertex="1">
                    <mxGeometry x="310" y="600" width="210" height="60" as="geometry"/>
                </mxCell>
                <mxCell id="21" value="Yes" style="edgeStyle=none;html=1;exitX=0.5;exitY=1;exitDx=0;exitDy=0;entryX=0.5;entryY=0;entryDx=0;entryDy=0;fontFamily=Lucida Console;fontSize=14;" parent="1" source="18" target="20" edge="1">
                    <mxGeometry relative="1" as="geometry"/>
                </mxCell>
                <mxCell id="29" value="No" style="edgeStyle=none;html=1;exitX=1;exitY=0.5;exitDx=0;exitDy=0;entryX=0.5;entryY=0.5;entryDx=0;entryDy=-20;fontFamily=Lucida Console;fontSize=14;entryPerimeter=0;" parent="1" source="18" target="39" edge="1">
                    <mxGeometry x="-0.6814" relative="1" as="geometry">
                        <Array as="points">
                            <mxPoint x="600" y="750"/>
                            <mxPoint x="600" y="920"/>
                            <mxPoint x="600" y="1050"/>
                            <mxPoint x="415" y="1050"/>
                        </Array>
                        <mxPoint as="offset"/>
                        <mxPoint x="415" y="1080" as="targetPoint"/>
                    </mxGeometry>
                </mxCell>
                <mxCell id="18" value="i &amp;lt; len(array)" style="rhombus;whiteSpace=wrap;html=1;fontSize=14;fontFamily=Lucida Console;fillColor=#0050ef;fontColor=#ffffff;strokeColor=#001DBC;" parent="1" vertex="1">
                    <mxGeometry x="280" y="710" width="270" height="80" as="geometry"/>
                </mxCell>
                <mxCell id="23" value="Yes" style="edgeStyle=none;html=1;fontFamily=Lucida Console;fontSize=14;" parent="1" source="20" target="22" edge="1">
                    <mxGeometry relative="1" as="geometry"/>
                </mxCell>
                <mxCell id="25" value="No" style="edgeStyle=none;html=1;fontFamily=Lucida Console;fontSize=14;" parent="1" source="20" target="24" edge="1">
                    <mxGeometry relative="1" as="geometry"/>
                </mxCell>
                <mxCell id="20" value="len(array[i]) &amp;lt;= 3" style="rhombus;whiteSpace=wrap;html=1;fontSize=14;fontFamily=Lucida Console;fillColor=#0050ef;fontColor=#ffffff;strokeColor=#001DBC;" parent="1" vertex="1">
                    <mxGeometry x="280" y="840" width="270" height="80" as="geometry"/>
                </mxCell>
                <mxCell id="26" style="edgeStyle=none;html=1;exitX=0;exitY=0.5;exitDx=0;exitDy=0;entryX=0.5;entryY=1;entryDx=0;entryDy=0;fontFamily=Lucida Console;fontSize=14;" parent="1" source="22" target="24" edge="1">
                    <mxGeometry relative="1" as="geometry">
                        <Array as="points">
                            <mxPoint x="170" y="1000"/>
                        </Array>
                    </mxGeometry>
                </mxCell>
                <mxCell id="22" value="result[k] = array[i]&lt;br&gt;k = k + 1" style="whiteSpace=wrap;html=1;fontSize=14;fontFamily=Lucida Console;fillColor=#f0a30a;fontColor=#000000;strokeColor=#BD7000;" parent="1" vertex="1">
                    <mxGeometry x="320" y="970" width="190" height="60" as="geometry"/>
                </mxCell>
                <mxCell id="27" style="edgeStyle=none;html=1;exitX=0.5;exitY=0;exitDx=0;exitDy=0;entryX=0;entryY=0.5;entryDx=0;entryDy=0;fontFamily=Lucida Console;fontSize=14;" parent="1" source="24" target="18" edge="1">
                    <mxGeometry relative="1" as="geometry">
                        <Array as="points">
                            <mxPoint x="170" y="750"/>
                        </Array>
                    </mxGeometry>
                </mxCell>
                <mxCell id="24" value="i = i + 1" style="whiteSpace=wrap;html=1;fontSize=14;fontFamily=Lucida Console;fillColor=#f0a30a;fontColor=#000000;strokeColor=#BD7000;" parent="1" vertex="1">
                    <mxGeometry x="110" y="850" width="120" height="60" as="geometry"/>
                </mxCell>
                <mxCell id="36" value="&amp;nbsp;len - длина массива/строки" style="strokeWidth=2;html=1;shape=mxgraph.flowchart.annotation_1;align=left;pointerEvents=1;fontFamily=Lucida Console;fontSize=14;" vertex="1" parent="1">
                    <mxGeometry x="585" y="190" width="50" height="40" as="geometry"/>
                </mxCell>
                <mxCell id="37" value="" style="endArrow=none;dashed=1;html=1;dashPattern=1 3;strokeWidth=2;fontFamily=Lucida Console;fontSize=14;entryX=0;entryY=0.5;entryDx=0;entryDy=0;entryPerimeter=0;" edge="1" parent="1" target="36">
                    <mxGeometry width="50" height="50" relative="1" as="geometry">
                        <mxPoint x="420" y="210" as="sourcePoint"/>
                        <mxPoint x="430" y="210" as="targetPoint"/>
                    </mxGeometry>
                </mxCell>
                <mxCell id="38" value="START" style="html=1;dashed=0;whitespace=wrap;shape=mxgraph.dfd.start;fontFamily=Lucida Console;fontSize=16;fillColor=#d80073;fontColor=#ffffff;strokeColor=#A50040;fontStyle=1" vertex="1" parent="1">
                    <mxGeometry x="360" y="30" width="110" height="40" as="geometry"/>
                </mxCell>
                <mxCell id="39" value="END" style="html=1;dashed=0;whitespace=wrap;shape=mxgraph.dfd.start;fontFamily=Lucida Console;fontSize=16;fillColor=#d80073;fontColor=#ffffff;strokeColor=#A50040;fontStyle=1" vertex="1" parent="1">
                    <mxGeometry x="360" y="1080" width="110" height="40" as="geometry"/>
                </mxCell>
            </root>
        </mxGraphModel>
    </diagram>
</mxfile>